<?xml version="1.0" encoding="utf-8"?>
<!-- Generator: Adobe Illustrator 19.0.0, SVG Export Plug-In . SVG Version: 6.00 Build 0)  -->
<svg version="1.1" id="Layer_1" xmlns="http://www.w3.org/2000/svg" xmlns:xlink="http://www.w3.org/1999/xlink" x="0px" y="0px"
	 viewBox="0 0 490.5 171" style="enable-background:new 0 0 490.5 171;" xml:space="preserve">
<style type="text/css">
	.st0{fill:#FFFFFF;}
</style>
<g id="XMLID_9_">
	<g id="XMLID_10_">
		<path id="XMLID_11_" class="st0" d="M70.7,160.2H28.6c-9.4,0-17.1-7.7-17.1-17.1V58.8c0-9.4,7.7-17.1,17.1-17.1h42.1
			c9.4,0,17.1,7.7,17.1,17.1v84.3C87.9,152.5,80.2,160.2,70.7,160.2z M28.6,47.8c-6.1,0-11,4.9-11,11v84.3c0,6,4.9,11,11,11h42.1
			c6,0,11-4.9,11-11V58.8c0-6.1-4.9-11-11-11H28.6z"/>
	</g>
</g>
<g id="XMLID_6_">
	<g id="XMLID_7_">
		<rect id="XMLID_8_" x="25.1" y="55.3" class="st0" width="49.2" height="91.3"/>
	</g>
</g>
<g id="XMLID_4_">
	<path id="XMLID_5_" class="st0" d="M101.2,59.5c-2.5,0-4.5-2-4.5-4.5c0-12.3-10-22.3-22.3-22.3c-2.5,0-4.5-2-4.5-4.5s2-4.5,4.5-4.5
		c17.2,0,31.2,14,31.2,31.2C105.7,57.5,103.7,59.5,101.2,59.5z"/>
</g>
<g id="XMLID_2_">
	<path id="XMLID_3_" class="st0" d="M119.1,59.5c-2.5,0-4.5-2-4.5-4.5c0-22.1-18-40.1-40.1-40.1c-2.5,0-4.5-2-4.5-4.5S72,6,74.5,6
		c27,0,49,22,49,49C123.5,57.5,121.5,59.5,119.1,59.5z"/>
</g>
<g id="XMLID_1_">
	<path id="XMLID_16_" class="st0" d="M164.8,113.1c0,15.2-11.1,26.4-25.3,26.4c-8.3,0-14.4-3.4-18.4-8.5v28.9h-8v-72h8v7.5
		c4-5.1,10.1-8.5,18.4-8.5C153.7,86.8,164.8,97.9,164.8,113.1z M120.5,113.1c0,10.7,7.4,18.9,18,18.9c10.9,0,18.1-8.4,18.1-18.9
		c0-10.4-7.3-18.8-18.1-18.8C127.9,94.2,120.5,102.4,120.5,113.1z"/>
	<path id="XMLID_19_" class="st0" d="M187.7,94.8c4.2-5.9,10.8-8.1,16.9-8.1c12.5,0,21.1,8,21.1,20.3v31.4h-8v-28.8
		c0-9.6-5.3-15.3-14.6-15.3c-8.5,0-15.5,5.9-15.5,15.5v28.6h-8v-77h8V94.8z"/>
	<path id="XMLID_21_" class="st0" d="M293.3,113.1c0,15-11.4,26.4-26.7,26.4c-15.2,0-26.6-11.3-26.6-26.4c0-15,11.4-26.3,26.6-26.3
		C281.9,86.8,293.3,98.1,293.3,113.1z M248.1,113.1c0,11,8,18.9,18.5,18.9c10.5,0,18.5-7.9,18.5-18.9c0-10.9-8-18.8-18.5-18.8
		C256.1,94.2,248.1,102.2,248.1,113.1z"/>
	<path id="XMLID_24_" class="st0" d="M354.3,107v31.4h-8v-28.8c0-9.6-5.3-15.3-14.6-15.3c-8.5,0-15.5,5.9-15.5,15.5v28.6h-8V87.8
		h7.9V95c4.1-6,10.9-8.2,17.1-8.2C345.7,86.8,354.3,94.8,354.3,107z"/>
	<path id="XMLID_26_" class="st0" d="M417.5,112.9c0,1-0.1,2.1-0.2,3h-40.6c1.1,10.9,8.8,16.5,17.9,16.5c6.3,0,11.7-2.4,16-6.4
		l4.3,5.5c-6.3,6-13.4,7.9-20.8,7.9c-15,0-25.6-10.6-25.6-26.3c0-15.5,10.7-26.4,25.1-26.4C407.4,86.8,417.4,97.5,417.5,112.9z
		 M376.8,109.4h32.5c-1-9.5-7.2-15.6-15.8-15.6C384.2,93.9,378.1,100.3,376.8,109.4z"/>
	<path id="XMLID_29_" class="st0" d="M435.7,160h-8.8l18.9-32.6l-23.3-39.7h8.9l18.9,31.8l17.9-31.8h8.8L435.7,160z"/>
</g>
</svg>
