<?xml version="1.0" encoding="utf-8"?>
<!-- Generator: Adobe Illustrator 19.0.0, SVG Export Plug-In . SVG Version: 6.00 Build 0)  -->
<svg version="1.1" id="Layer_1" xmlns="http://www.w3.org/2000/svg" xmlns:xlink="http://www.w3.org/1999/xlink" x="0px" y="0px"
	 viewBox="0 0 526.5 189" style="enable-background:new 0 0 526.5 189;" xml:space="preserve">
<style type="text/css">
	.st0{fill:#FFFFFF;}
</style>
<g id="XMLID_9_">
	<g id="XMLID_10_">
		<path id="XMLID_11_" class="st0" d="M69.8,171.7H25.2c-10,0-18.1-8.1-18.1-18.1V64.4c0-10,8.1-18.1,18.1-18.1h44.6
			c10,0,18.1,8.1,18.1,18.1v89.2C87.9,163.6,79.8,171.7,69.8,171.7z M25.2,52.8c-6.4,0-11.6,5.2-11.6,11.6v89.2
			c0,6.4,5.2,11.6,11.6,11.6h44.6c6.4,0,11.6-5.2,11.6-11.6V64.4c0-6.4-5.2-11.6-11.6-11.6H25.2z"/>
	</g>
</g>
<g id="XMLID_6_">
	<g id="XMLID_7_">
		<rect id="XMLID_8_" x="21.4" y="60.7" class="st0" width="52" height="96.6"/>
	</g>
</g>
<g id="XMLID_4_">
	<path id="XMLID_5_" class="st0" d="M102,65.1c-2.6,0-4.7-2.1-4.7-4.7c0-13-10.6-23.6-23.6-23.6c-2.6,0-4.7-2.1-4.7-4.7
		c0-2.6,2.1-4.7,4.7-4.7c18.2,0,33,14.8,33,33C106.8,63,104.6,65.1,102,65.1z"/>
</g>
<g id="XMLID_2_">
	<path id="XMLID_3_" class="st0" d="M120.9,65.1c-2.6,0-4.7-2.1-4.7-4.7c0-23.4-19-42.4-42.4-42.4c-2.6,0-4.7-2.1-4.7-4.7
		s2.1-4.7,4.7-4.7c28.6,0,51.9,23.3,51.9,51.9C125.6,63,123.5,65.1,120.9,65.1z"/>
</g>
<g id="XMLID_1_">
	<path id="XMLID_83_" class="st0" d="M153.4,90.1c0,11-8,19.1-18.3,19.1c-5.8,0-10-2.2-12.9-5.7v20.3h-6.3v-52h6.3v4.9
		c2.8-3.4,7.1-5.7,12.9-5.7C145.3,71,153.4,79,153.4,90.1z M121.8,90.1c0,7.5,5.2,13.2,12.6,13.2c7.6,0,12.6-5.9,12.6-13.2
		c0-7.3-5.1-13.1-12.6-13.1C126.9,77,121.8,82.6,121.8,90.1z"/>
	<path id="XMLID_86_" class="st0" d="M170.2,76.5c3-4.1,7.7-5.5,11.9-5.5c9,0,15.2,5.9,15.2,14.6v22.7H191V87.7
		c0-6.7-3.7-10.7-10-10.7c-5.9,0-10.8,4-10.8,10.9v20.5h-6.3V52.9h6.3V76.5z"/>
	<path id="XMLID_88_" class="st0" d="M246.2,90.1c0,10.9-8.3,19.1-19.4,19.1s-19.3-8.2-19.3-19.1S215.8,71,226.8,71
		S246.2,79.2,246.2,90.1z M214,90.1c0,7.7,5.5,13.2,12.9,13.2c7.3,0,12.9-5.5,12.9-13.2S234.2,77,226.8,77
		C219.5,77,214,82.4,214,90.1z"/>
	<path id="XMLID_91_" class="st0" d="M290.2,85.7v22.7h-6.3V87.7c0-6.7-3.7-10.7-10-10.7C268,77,263,81,263,87.9v20.5h-6.3V71.8h6.2
		v4.8c3-4.1,7.7-5.5,12-5.5C284,71,290.2,76.9,290.2,85.7z"/>
	<path id="XMLID_93_" class="st0" d="M335.8,90c0,0.8-0.1,1.7-0.1,2.3h-28.8c0.9,7.6,6.2,11.3,12.4,11.3c4.3,0,8.2-1.7,11.3-4.4
		l3.3,4.3c-4.5,4.2-9.6,5.5-15,5.5c-10.9,0-18.6-7.7-18.6-19.1c0-11.2,7.7-19.1,18.2-19.1C328.5,71,335.7,78.8,335.8,90z M307,87.2
		h22.4c-0.8-6.5-5-10.6-10.9-10.6C312,76.6,307.9,81,307,87.2z"/>
</g>
<g id="XMLID_16_">
	<path id="XMLID_96_" class="st0" d="M147,138.6l-7.2,6c-2.3-2.4-4.7-3.7-8-3.7c-5.2,0-9.4,4.1-9.4,10.3c0,6.2,4.1,10.3,9.3,10.3
		c3.2,0,6-1.5,8.1-3.8l7.2,6.1c-3.5,4.5-8.7,7-15,7c-11.9,0-19.9-8.3-19.9-19.6c0-11.3,8-19.6,19.9-19.6
		C138.3,131.5,143.6,134.1,147,138.6z"/>
	<path id="XMLID_98_" class="st0" d="M190.2,169.8h-9.8v-4.1c-2.4,3-6,5.1-11.2,5.1c-10.3,0-18.1-8.4-18.1-19.6
		c0-11.2,7.8-19.6,18.1-19.6c5.1,0,8.7,2.1,11.2,5.1v-4.1h9.8V169.8z M161.5,151.1c0,5.7,3.7,10.3,9.6,10.3c5.7,0,9.6-4.4,9.6-10.3
		s-3.9-10.3-9.6-10.3C165.2,140.9,161.5,145.4,161.5,151.1z"/>
	<path id="XMLID_101_" class="st0" d="M227.9,141.4h-13.5v13.6c0,4.7,2.5,6.4,5.6,6.4c2.4,0,5-1.2,7-2.4l3.7,7.9
		c-3.3,2.2-7,3.9-12.4,3.9c-9.2,0-14-5.2-14-14.9v-14.4h-7.2v-8.9h7.2v-11.1h10v11.1h13.5V141.4z"/>
	<path id="XMLID_103_" class="st0" d="M273,169.8h-9.8v-4.1c-2.4,3-6,5.1-11.2,5.1c-10.3,0-18.1-8.4-18.1-19.6
		c0-11.2,7.8-19.6,18.1-19.6c5.1,0,8.7,2.1,11.2,5.1v-4.1h9.8V169.8z M244.2,151.1c0,5.7,3.7,10.3,9.6,10.3c5.7,0,9.6-4.4,9.6-10.3
		s-3.9-10.3-9.6-10.3C247.9,140.9,244.2,145.4,244.2,151.1z"/>
	<path id="XMLID_106_" class="st0" d="M293.6,169.8h-10v-55.4h10V169.8z"/>
	<path id="XMLID_108_" class="st0" d="M342.2,151.1c0,11.2-8.6,19.6-20.2,19.6c-11.6,0-20.1-8.4-20.1-19.6
		c0-11.2,8.5-19.6,20.1-19.6C333.6,131.5,342.2,139.9,342.2,151.1z M312.1,151.1c0,6,4.2,10.3,9.9,10.3s9.9-4.2,9.9-10.3
		c0-6-4.3-10.3-9.9-10.3S312.1,145.1,312.1,151.1z"/>
	<path id="XMLID_111_" class="st0" d="M376.8,136.7v-4.2h9.9v34.2c0,12-7.8,19.2-20.1,19.2c-5.9,0-12.1-1.5-16.3-4.5l3.6-8.2
		c3.7,2.5,7.9,3.8,12.3,3.8c6.2,0,10.6-3.5,10.6-9.9v-2.6c-2.5,3.1-6.3,5-11.5,5c-9.1,0-17.2-7.6-17.2-19c0-11.5,8.1-19.1,17.2-19.1
		C370.4,131.5,374.2,133.5,376.8,136.7z M358.4,150.6c0,5.4,3.7,9.8,9.4,9.8c5.6,0,9.4-4.2,9.4-9.8c0-5.6-3.8-9.8-9.4-9.8
		C362,140.7,358.4,145.1,358.4,150.6z"/>
	<path id="XMLID_114_" class="st0" d="M432.2,153.9c0,11.8-8.3,16.9-17.6,16.9c-9.4,0-17.7-5.1-17.7-16.9v-21.4h10V153
		c0,6,3.3,8.4,7.6,8.4c4.3,0,7.6-2.4,7.6-8.4v-20.5h10V153.9z"/>
	<path id="XMLID_116_" class="st0" d="M477.1,151.1c0,1.2-0.1,2.5-0.2,3.4h-26.4c1.1,5.4,4.9,7.7,9.6,7.7c3.2,0,6.7-1.3,9.4-3.6
		l5.9,6.5c-4.2,3.9-9.6,5.7-15.9,5.7c-11.4,0-19.4-7.8-19.4-19.5c0-11.7,7.7-19.7,18.9-19.7C469.7,131.5,477.1,139.5,477.1,151.1z
		 M450.5,147.6H467c-0.9-4.8-3.8-7.5-8.1-7.5C454.2,140.2,451.4,143,450.5,147.6z"/>
	<path id="XMLID_119_" class="st0" d="M511.8,142.9c-3-1.5-7.7-3-11.9-3c-3.8,0-5.7,1.3-5.7,3.4c0,2.2,2.7,2.7,6.1,3.2l3.3,0.5
		c8.1,1.2,12.6,4.9,12.6,11.2c0,7.7-6.3,12.7-17.1,12.7c-5.1,0-11.7-1-16.6-4.4l4-7.6c3.2,2.1,7.1,3.7,12.7,3.7
		c4.7,0,6.9-1.3,6.9-3.5c0-1.8-1.9-2.8-6.2-3.4l-3-0.4c-8.6-1.2-12.9-5-12.9-11.3c0-7.7,5.9-12.2,15.7-12.2c6,0,10.6,1.1,15.6,3.5
		L511.8,142.9z"/>
</g>
</svg>
